HIERARCHY
ROOT Hips
{
	OFFSET	0.000000	0.000000	0.000000
	CHANNELS 6 Xposition Yposition Zposition Zrotation Xrotation Yrotation
	JOINT LeftUpLeg
	{
		OFFSET	11.840399	-0.173119	-0.075538
		CHANNELS 3 Zrotation Xrotation Yrotation
		JOINT LeftLeg
		{
			OFFSET	0.064808	-44.851298	0.781096
			CHANNELS 3 Zrotation Xrotation Yrotation
			JOINT LeftFoot
			{
				OFFSET	-0.411978	-49.277500	-5.913910
				CHANNELS 3 Zrotation Xrotation Yrotation
				JOINT LeftFootHeel
				{
					OFFSET	0.398859	-7.754640	-1.534350
					CHANNELS 3 Zrotation Xrotation Yrotation
					End Site
					{
						OFFSET	-0.801033	0.000000	15.913000
					}
				}
			}
		}
	}
	JOINT RightUpLeg
	{
		OFFSET	-11.834999	-0.173119	-0.075545
		CHANNELS 3 Zrotation Xrotation Yrotation
		JOINT RightLeg
		{
			OFFSET	0.475869	-44.754298	0.015312
			CHANNELS 3 Zrotation Xrotation Yrotation
			JOINT RightFoot
			{
				OFFSET	-0.134178	-49.374297	-5.148100
				CHANNELS 3 Zrotation Xrotation Yrotation
				JOINT RightFootHeel
				{
					OFFSET	-0.839358	-7.754890	-1.534350
					CHANNELS 3 Zrotation Xrotation Yrotation
					End Site
					{
						OFFSET	-0.408955	0.000000	15.913000
					}
				}
			}
		}
	}
	JOINT Spine
	{
		OFFSET	0.050508	11.209099	-0.582724
		CHANNELS 3 Zrotation Xrotation Yrotation
		JOINT Spine1
		{
			OFFSET	0.042163	9.774660	-1.172990
			CHANNELS 3 Zrotation Xrotation Yrotation
			JOINT LeftShoulder
			{
				OFFSET	5.603600	33.379699	4.558560
				CHANNELS 3 Zrotation Xrotation Yrotation
				JOINT LeftArm
				{
					OFFSET	13.074199	-1.820300	-4.573250
					CHANNELS 3 Zrotation Xrotation Yrotation
					JOINT LeftForeArm
					{
						OFFSET	5.636920	-32.087297	-3.211630
						CHANNELS 3 Zrotation Xrotation Yrotation
						JOINT LeftHand
						{
							OFFSET	3.776520	-29.426399	4.832530
							CHANNELS 3 Zrotation Xrotation Yrotation
							End Site
							{
								OFFSET	-0.179757	-9.309100	2.195490
							}
						}
					}
				}
			}
			JOINT RightShoulder
			{
				OFFSET	-4.623460	33.254699	4.558560
				CHANNELS 3 Zrotation Xrotation Yrotation
				JOINT RightArm
				{
					OFFSET	-13.749399	-1.225980	-4.573250
					CHANNELS 3 Zrotation Xrotation Yrotation
					JOINT RightForeArm
					{
						OFFSET	-4.875480	-32.133799	-3.211650
						CHANNELS 3 Zrotation Xrotation Yrotation
						JOINT RightHand
						{
							OFFSET	-6.200270	-29.009799	4.832530
							CHANNELS 3 Zrotation Xrotation Yrotation
							End Site
							{
								OFFSET	-0.386105	-9.730280	2.195490
							}
						}
					}
				}
			}
			JOINT Neck
			{
				OFFSET	0.427050	38.342097	-0.327886
				CHANNELS 3 Zrotation Xrotation Yrotation
				JOINT Head
				{
					OFFSET	-0.148467	9.384920	4.054140
					CHANNELS 3 Zrotation Xrotation Yrotation
					End Site
					{
						OFFSET	-0.426895	13.303099	0.399781
					}
				}
			}
		}
	}
}
MOTION
Frames:    14
Frame Time: 0.016667
0.000000	103.052952	0.000000	-3.275460	-13.622400	-29.391001	1.529940	7.180979	4.779678	-6.065209	11.320801	-1.885010	-2.191599	-11.259900	-6.780722	0.	0.	0.	-8.627230	-6.910282	1.518590	3.864810	28.504494	-30.237307	9.827562	-0.395156	-25.909803	0.	0.	0.	-0.000001	0.000000	-0.000000	-8.924100	16.146200	3.277409	2.300410	-5.447719	0.263653	0.588432	-2.537290	-12.605900	0.659115	-1.181790	2.445678	0.624420	4.361200	-21.367104	0.339635	-4.635119	0.860541	10.828202	3.371932	8.508461	-3.178509	-1.938469	-12.979199	4.597530	9.956894	4.241301	-1.106910	0.351314	5.118300	-0.604914	-2.283538	-4.334401	
-0.215539	102.880812	-0.453132	-3.110710	-13.656000	-29.381998	1.431060	7.096571	4.633761	-6.092371	11.334601	-1.799488	-2.377431	-11.376001	-6.772627	0.	0.	0.	-8.410780	-6.837351	2.434320	3.898841	28.401302	-28.853800	9.949213	-1.722847	-25.895596	0.	0.	0.	-0.000002	0.000002	0.000001	-9.169440	16.228903	3.064132	2.340619	-5.488852	0.113898	1.146019	-2.748930	-12.943896	0.787810	-1.368220	2.674723	0.769130	4.150801	-21.301500	0.167083	-4.741501	0.787444	10.597698	3.623421	8.323743	-2.881881	-1.799040	-12.361997	4.072040	9.584521	4.073084	-1.299910	0.198796	4.912043	-0.477926	-2.392371	-4.078559	
-0.161543	102.836532	-0.928435	-2.974490	-13.684500	-29.323099	1.465290	6.976891	4.544142	-6.226748	11.482601	-1.789118	-2.548317	-11.566803	-6.798708	0.	0.	0.	-8.070439	-6.533989	3.364792	3.830992	27.793804	-27.453600	9.532551	-3.051059	-26.206898	0.	0.	0.	-0.000002	0.000002	0.000002	-9.339170	16.332500	2.812052	2.382830	-5.525191	-0.042810	1.457340	-2.895571	-12.877695	1.185680	-1.611091	2.558925	0.995540	3.882588	-21.176497	0.019935	-4.829552	0.726299	10.513598	3.740509	8.319973	-2.817791	-1.670252	-11.933997	3.935420	9.319640	3.981094	-1.476860	0.071635	4.670313	-0.375177	-2.469522	-3.791216	
0.015000	102.807405	-0.689330	-3.006716	-13.398774	-29.244709	1.652470	6.803170	4.579102	-6.457990	11.763301	-1.804448	-2.697091	-11.819701	-6.942540	0.	0.	0.	-7.621951	-6.058702	4.010570	3.529629	26.733196	-26.051300	8.789710	-4.082863	-27.075998	0.	0.	0.	-0.000001	0.000001	0.000000	-9.411920	16.417803	2.592620	2.423440	-5.539228	-0.186627	2.046450	-3.142688	-13.075500	1.308999	-1.891818	2.774544	1.272700	3.577472	-21.009298	-0.107798	-4.909679	0.672151	10.099401	3.980392	8.040061	-2.546849	-1.891028	-11.249198	3.481541	9.173272	3.993390	-1.659351	-0.107805	4.471479	-0.267259	-2.421299	-3.630382	
0.159956	102.816184	-0.162524	-3.102936	-13.082156	-29.168238	1.815400	6.677948	4.602951	-6.628300	12.027699	-1.636510	-2.808580	-12.063099	-7.250299	0.	0.	0.	-7.186720	-5.365791	4.346022	3.088821	25.210499	-25.004898	7.675272	-4.795570	-28.166998	0.	0.	0.	-0.000001	0.000000	0.000000	-9.366971	16.453598	2.440160	2.434649	-5.519378	-0.343719	2.638590	-3.404078	-13.177199	1.448650	-2.202918	2.979796	1.554830	3.248921	-20.850597	-0.254741	-4.903069	0.604650	9.658010	4.213951	7.755459	-2.311300	-2.270599	-10.641301	3.173079	9.068810	4.065090	-1.830602	-0.289790	4.319250	-0.194733	-2.241488	-3.626279	
0.209998	102.804944	0.142790	-3.207552	-12.756352	-29.154768	2.191800	6.436231	4.805912	-6.955639	12.375800	-1.665098	-2.894400	-12.227101	-7.485817	0.	0.	0.	-6.747321	-4.509360	4.529353	2.554530	23.270098	-24.634100	5.901200	-5.262281	-29.084793	0.	0.	0.	-0.000002	0.000002	0.000003	-9.345221	16.392401	2.424444	2.465539	-5.475000	-0.470620	3.253389	-3.651869	-13.227193	1.604149	-2.539459	3.237021	1.799880	2.910751	-20.740088	-0.329092	-4.796430	0.552132	9.153191	4.441180	7.380964	-2.053739	-2.780849	-10.106198	2.960722	8.948019	4.115583	-1.921031	-0.333052	4.213525	-0.168714	-2.105971	-3.729007	
0.162075	102.857005	0.457679	-3.337994	-12.464183	-29.224745	2.656850	6.159200	5.079010	-7.403040	13.001298	-1.516520	-2.949480	-12.522901	-7.862969	0.	0.	0.	-6.259730	-3.564059	4.433029	2.203760	21.461105	-24.767298	4.013049	-5.534717	-29.029011	0.	0.	0.	-0.000001	0.000001	-0.000001	-9.347780	16.324900	2.517610	2.487830	-5.449649	-0.525100	3.906311	-3.877400	-13.220600	1.777010	-2.941550	3.537968	2.024990	2.591790	-20.630301	-0.298224	-4.656919	0.591355	8.610420	4.678901	6.971331	-1.783790	-3.378440	-9.766506	2.717290	8.768311	4.096332	-1.931879	-0.276299	4.181809	-0.192085	-2.107000	-3.889829	
-0.320537	102.981290	0.796431	-3.660628	-12.396812	-29.304268	3.206391	6.025939	5.175890	-7.950870	13.836398	-1.349050	-2.898540	-12.853999	-8.088219	0.	0.	0.	-5.843929	-2.659700	3.415291	2.016921	20.583399	-23.534901	2.843700	-5.976831	-29.235699	0.	0.	0.	-0.000001	0.000002	0.000000	-9.268618	16.453699	2.687301	2.354331	-5.320940	-0.629128	4.665290	-4.156391	-13.048297	1.951241	-3.394441	3.884629	2.338441	2.269528	-20.503201	-0.073781	-4.337260	0.650968	7.777269	4.809480	6.402092	-1.361780	-3.963899	-9.407537	2.374900	8.434989	3.921463	-1.898749	0.111411	4.243462	-0.290643	-2.380701	-4.116767	
-0.053919	103.002558	0.944972	-4.346082	-12.467360	-29.338928	4.064960	6.058421	5.047122	-8.659079	14.826696	-1.152208	-2.705158	-13.067405	-8.202998	0.	0.	0.	-5.439011	-1.895919	2.564981	1.538040	19.901600	-23.465099	2.792280	-5.217703	-28.445599	0.	0.	0.	-0.000002	0.000002	0.000002	-9.063010	17.301399	2.828701	2.340681	-5.525620	-0.709870	5.371071	-4.551351	-12.693999	1.690981	-3.553320	3.907269	3.197722	1.554879	-19.903801	0.437827	-4.261741	0.764157	6.820632	4.745300	5.953271	-0.986913	-4.453270	-9.246696	2.000092	7.909930	3.577253	-1.590019	0.296086	4.449342	-0.545915	-2.915282	-4.567019	
0.317349	102.980428	1.246048	-5.318423	-12.455209	-29.382702	5.209849	6.162851	4.882259	-9.341827	15.835800	-0.893809	-2.479867	-13.217104	-8.381793	0.	0.	0.	-4.812438	-0.980493	2.244451	1.047471	19.121899	-25.300301	2.997772	-3.863681	-26.248692	0.	0.	0.	-0.000001	0.000003	0.000001	-8.533198	18.496098	2.816820	2.474411	-5.792571	-0.774661	5.775160	-5.150360	-12.090299	1.942660	-4.020309	4.330835	3.819550	1.074341	-19.432400	0.639976	-4.638531	0.872057	6.217792	4.775318	5.943770	-0.671378	-4.750181	-9.344380	1.614652	7.265547	3.006123	-1.276029	-0.011735	4.528059	-0.737529	-3.050701	-4.763310	
0.254218	102.885879	1.624499	-6.348379	-12.256083	-29.525764	6.357700	6.235771	4.784522	-9.798572	16.651604	-0.488869	-2.421082	-13.319696	-8.686646	0.	0.	0.	-3.994531	-0.190176	2.209141	1.075980	18.571802	-26.332600	2.884649	-3.113749	-25.192402	0.	0.	0.	-0.000001	0.000001	0.000001	-7.599400	19.300200	2.724992	2.396730	-5.912637	-0.764129	5.887040	-5.586787	-11.554496	2.337830	-4.458878	4.942133	4.637781	0.486203	-18.815096	0.600544	-4.708488	1.083443	5.617720	4.573452	6.135214	-0.569842	-4.866067	-9.749417	1.404470	6.822773	2.557493	-1.391721	-0.412083	4.197235	-0.665892	-2.663388	-4.516876	
0.307722	102.784936	2.059725	-7.125521	-12.055983	-29.624119	7.270988	6.399402	4.873751	-10.125899	17.175503	-0.295398	-2.500189	-13.514907	-9.002281	0.	0.	0.	-3.533260	0.374939	2.120669	1.306700	18.223200	-26.439203	2.779711	-2.830313	-25.028000	0.	0.	0.	-0.000001	0.000002	0.000000	-6.687470	19.728201	2.596721	2.448240	-5.647441	-0.809671	5.497680	-6.042501	-11.229098	2.838460	-4.899580	5.846952	4.877769	0.425567	-19.003199	0.390793	-4.756151	1.079811	5.111981	4.429109	6.435651	-0.645095	-4.827040	-10.077503	1.251431	6.643250	2.280166	-1.704230	-0.553521	3.661451	-0.488461	-2.251111	-4.051198	
0.313873	102.760325	2.563144	-7.628616	-12.030937	-29.545456	7.813859	6.696638	4.929929	-10.278599	17.491394	-0.671743	-2.577380	-13.785197	-8.866499	0.	0.	0.	-3.335679	1.121370	1.639040	1.415331	17.758398	-25.655701	2.712852	-2.878843	-25.502703	0.	0.	0.	-0.000001	0.000001	-0.000000	-5.971109	19.950096	2.306829	2.587681	-5.275261	-0.788436	4.819341	-6.317353	-11.341002	3.362682	-5.346494	7.009626	6.000321	-0.232927	-18.152700	0.109898	-4.672281	0.982398	4.668100	4.243739	6.476978	-0.728853	-4.792801	-10.156103	0.984195	6.684729	2.306297	-2.043910	-0.196131	3.228439	-0.330466	-2.205381	-3.598901	
0.269193	102.808558	3.118706	-8.021453	-12.117257	-29.330063	8.130931	7.036777	4.738588	-10.408599	17.726801	-1.268171	-2.455400	-14.151598	-8.296141	0.	0.	0.	-3.101760	2.137369	1.266508	1.263189	17.021599	-25.157503	2.802630	-2.941722	-25.901808	0.	0.	0.	-0.000001	-0.000000	-0.000001	-5.380580	20.127998	1.885437	2.759540	-4.955989	-0.685389	4.186329	-6.381240	-11.798103	3.730859	-5.872490	8.206828	7.168569	-0.790126	-17.158001	-0.100901	-4.449440	0.914587	4.174330	3.976521	6.119358	-0.651654	-4.942959	-10.023398	0.505335	6.805361	2.539319	-2.253500	0.384675	2.984728	-0.262887	-2.408129	-3.264190	
